<?xml version="1.0" encoding="utf-8"?><!-- Uploaded to: SVG Repo, www.svgrepo.com, Generator: SVG Repo Mixer Tools -->
<svg fill="#000000" width="800px" height="800px" viewBox="0 0 24 24" id="stawberry" data-name="Flat Line" xmlns="http://www.w3.org/2000/svg" class="icon flat-line"><path id="secondary" d="M7.82,17.5C8.82,19.41,10,21,12,21s3.18-1.59,4.18-3.5A11.93,11.93,0,0,0,18,11.67C18,9.09,15.31,7,12,7S6,9.09,6,11.67A11.93,11.93,0,0,0,7.82,17.5Z" style="fill: rgb(44, 169, 188); stroke-width: 2;"></path><path id="primary" d="M14.8,7.54A7.47,7.47,0,0,0,12,7s1.54-5.8,6-3.43A5.11,5.11,0,0,1,14.8,7.54ZM6,3.57C10.46,1.2,12,7,12,7a7.47,7.47,0,0,0-2.8.54A5.11,5.11,0,0,1,6,3.57Z" style="fill: none; stroke: rgb(0, 0, 0); stroke-linecap: round; stroke-linejoin: round; stroke-width: 2;"></path><path id="primary-2" data-name="primary" d="M7.82,17.5C8.82,19.41,10,21,12,21s3.18-1.59,4.18-3.5A11.93,11.93,0,0,0,18,11.67C18,9.09,15.31,7,12,7S6,9.09,6,11.67A11.93,11.93,0,0,0,7.82,17.5Z" style="fill: none; stroke: rgb(0, 0, 0); stroke-linecap: round; stroke-linejoin: round; stroke-width: 2;"></path></svg>